<?xml version="1.0" standalone="no"?>
<!DOCTYPE svg PUBLIC "-//W3C//DTD SVG 1.1//EN" "http://www.w3.org/Graphics/SVG/1.1/DTD/svg11.dtd">
<svg xmlns:xlink="http://www.w3.org/1999/xlink" width="46.265ex" height="3.009ex" style="vertical-align: -1.005ex;" viewBox="0 -863.1 19919.4 1295.7" xmlns="http://www.w3.org/2000/svg">
<defs>
<path stroke-width="10" id="E1-MJMAIN-27E8" d="M333 -232Q332 -239 327 -244T313 -250Q303 -250 296 -240Q293 -233 202 6T110 250T201 494T296 740Q299 745 306 749L309 750Q312 750 313 750Q331 750 333 732Q333 727 243 489Q152 252 152 250T243 11Q333 -227 333 -232Z"></path>
<path stroke-width="10" id="E1-MJMATHI-73" d="M131 289Q131 321 147 354T203 415T300 442Q362 442 390 415T419 355Q419 323 402 308T364 292Q351 292 340 300T328 326Q328 342 337 354T354 372T367 378Q368 378 368 379Q368 382 361 388T336 399T297 405Q249 405 227 379T204 326Q204 301 223 291T278 274T330 259Q396 230 396 163Q396 135 385 107T352 51T289 7T195 -10Q118 -10 86 19T53 87Q53 126 74 143T118 160Q133 160 146 151T160 120Q160 94 142 76T111 58Q109 57 108 57T107 55Q108 52 115 47T146 34T201 27Q237 27 263 38T301 66T318 97T323 122Q323 150 302 164T254 181T195 196T148 231Q131 256 131 289Z"></path>
<path stroke-width="10" id="E1-MJMAIN-3D" d="M56 347Q56 360 70 367H707Q722 359 722 347Q722 336 708 328L390 327H72Q56 332 56 347ZM56 153Q56 168 72 173H708Q722 163 722 153Q722 140 707 133H70Q56 140 56 153Z"></path>
<path stroke-width="10" id="E1-MJMATHI-75" d="M21 287Q21 295 30 318T55 370T99 420T158 442Q204 442 227 417T250 358Q250 340 216 246T182 105Q182 62 196 45T238 27T291 44T328 78L339 95Q341 99 377 247Q407 367 413 387T427 416Q444 431 463 431Q480 431 488 421T496 402L420 84Q419 79 419 68Q419 43 426 35T447 26Q469 29 482 57T512 145Q514 153 532 153Q551 153 551 144Q550 139 549 130T540 98T523 55T498 17T462 -8Q454 -10 438 -10Q372 -10 347 46Q345 45 336 36T318 21T296 6T267 -6T233 -11Q189 -11 155 7Q103 38 103 113Q103 170 138 262T173 379Q173 380 173 381Q173 390 173 393T169 400T158 404H154Q131 404 112 385T82 344T65 302T57 280Q55 278 41 278H27Q21 284 21 287Z"></path>
<path stroke-width="10" id="E1-MJMAIN-30" d="M96 585Q152 666 249 666Q297 666 345 640T423 548Q460 465 460 320Q460 165 417 83Q397 41 362 16T301 -15T250 -22Q224 -22 198 -16T137 16T82 83Q39 165 39 320Q39 494 96 585ZM321 597Q291 629 250 629Q208 629 178 597Q153 571 145 525T137 333Q137 175 145 125T181 46Q209 16 250 16Q290 16 318 46Q347 76 354 130T362 333Q362 478 354 524T321 597Z"></path>
<path stroke-width="10" id="E1-MJMAIN-2C" d="M78 35T78 60T94 103T137 121Q165 121 187 96T210 8Q210 -27 201 -60T180 -117T154 -158T130 -185T117 -194Q113 -194 104 -185T95 -172Q95 -168 106 -156T131 -126T157 -76T173 -3V9L172 8Q170 7 167 6T161 3T152 1T140 0Q113 0 96 17Z"></path>
<path stroke-width="10" id="E1-MJMAIN-31" d="M213 578L200 573Q186 568 160 563T102 556H83V602H102Q149 604 189 617T245 641T273 663Q275 666 285 666Q294 666 302 660V361L303 61Q310 54 315 52T339 48T401 46H427V0H416Q395 3 257 3Q121 3 100 0H88V46H114Q136 46 152 46T177 47T193 50T201 52T207 57T213 61V578Z"></path>
<path stroke-width="10" id="E1-MJMAIN-2026" d="M78 60Q78 84 95 102T138 120Q162 120 180 104T199 61Q199 36 182 18T139 0T96 17T78 60ZM525 60Q525 84 542 102T585 120Q609 120 627 104T646 61Q646 36 629 18T586 0T543 17T525 60ZM972 60Q972 84 989 102T1032 120Q1056 120 1074 104T1093 61Q1093 36 1076 18T1033 0T990 17T972 60Z"></path>
<path stroke-width="10" id="E1-MJMATHI-70" d="M23 287Q24 290 25 295T30 317T40 348T55 381T75 411T101 433T134 442Q209 442 230 378L240 387Q302 442 358 442Q423 442 460 395T497 281Q497 173 421 82T249 -10Q227 -10 210 -4Q199 1 187 11T168 28L161 36Q160 35 139 -51T118 -138Q118 -144 126 -145T163 -148H188Q194 -155 194 -157T191 -175Q188 -187 185 -190T172 -194Q170 -194 161 -194T127 -193T65 -192Q-5 -192 -24 -194H-32Q-39 -187 -39 -183Q-37 -156 -26 -148H-6Q28 -147 33 -136Q36 -130 94 103T155 350Q156 355 156 364Q156 405 131 405Q109 405 94 377T71 316T59 280Q57 278 43 278H29Q23 284 23 287ZM178 102Q200 26 252 26Q282 26 310 49T356 107Q374 141 392 215T411 325V331Q411 405 350 405Q339 405 328 402T306 393T286 380T269 365T254 350T243 336T235 326L232 322Q232 321 229 308T218 264T204 212Q178 106 178 102Z"></path>
<path stroke-width="10" id="E1-MJMATHI-76" d="M173 380Q173 405 154 405Q130 405 104 376T61 287Q60 286 59 284T58 281T56 279T53 278T49 278T41 278H27Q21 284 21 287Q21 294 29 316T53 368T97 419T160 441Q202 441 225 417T249 361Q249 344 246 335Q246 329 231 291T200 202T182 113Q182 86 187 69Q200 26 250 26Q287 26 319 60T369 139T398 222T409 277Q409 300 401 317T383 343T365 361T357 383Q357 405 376 424T417 443Q436 443 451 425T467 367Q467 340 455 284T418 159T347 40T241 -11Q177 -11 139 22Q102 54 102 117Q102 148 110 181T151 298Q173 362 173 380Z"></path>
<path stroke-width="10" id="E1-MJMATHI-71" d="M33 157Q33 258 109 349T280 441Q340 441 372 389Q373 390 377 395T388 406T404 418Q438 442 450 442Q454 442 457 439T460 434Q460 425 391 149Q320 -135 320 -139Q320 -147 365 -148H390Q396 -156 396 -157T393 -175Q389 -188 383 -194H370Q339 -192 262 -192Q234 -192 211 -192T174 -192T157 -193Q143 -193 143 -185Q143 -182 145 -170Q149 -154 152 -151T172 -148Q220 -148 230 -141Q238 -136 258 -53T279 32Q279 33 272 29Q224 -10 172 -10Q117 -10 75 30T33 157ZM352 326Q329 405 277 405Q242 405 210 374T160 293Q131 214 119 129Q119 126 119 118T118 106Q118 61 136 44T179 26Q233 26 290 98L298 109L352 326Z"></path>
<path stroke-width="10" id="E1-MJMATHI-74" d="M26 385Q19 392 19 395Q19 399 22 411T27 425Q29 430 36 430T87 431H140L159 511Q162 522 166 540T173 566T179 586T187 603T197 615T211 624T229 626Q247 625 254 615T261 596Q261 589 252 549T232 470L222 433Q222 431 272 431H323Q330 424 330 420Q330 398 317 385H210L174 240Q135 80 135 68Q135 26 162 26Q197 26 230 60T283 144Q285 150 288 151T303 153H307Q322 153 322 145Q322 142 319 133Q314 117 301 95T267 48T216 6T155 -11Q125 -11 98 4T59 56Q57 64 57 83V101L92 241Q127 382 128 383Q128 385 77 385H26Z"></path>
<path stroke-width="10" id="E1-MJMAIN-27E9" d="M55 732Q56 739 61 744T75 750Q85 750 92 740Q95 733 186 494T278 250T187 6T92 -240Q85 -250 75 -250Q67 -250 62 -245T55 -232Q55 -227 145 11Q236 248 236 250T145 489Q55 727 55 732Z"></path>
<path stroke-width="10" id="E1-MJMAIN-2208" d="M84 250Q84 372 166 450T360 539Q361 539 377 539T419 540T469 540H568Q583 532 583 520Q583 511 570 501L466 500Q355 499 329 494Q280 482 242 458T183 409T147 354T129 306T124 272V270H568Q583 262 583 250T568 230H124V228Q124 207 134 177T167 112T231 48T328 7Q355 1 466 0H570Q583 -10 583 -20Q583 -32 568 -40H471Q464 -40 446 -40T417 -41Q262 -41 172 45Q84 127 84 250Z"></path>
<path stroke-width="10" id="E1-MJAMS-4E" d="M20 664Q20 666 31 683H142Q256 683 258 681Q259 680 279 653T342 572T422 468L582 259V425Q582 451 582 490T583 541Q583 611 573 628T522 648Q500 648 493 654Q484 665 493 679L500 683H691Q702 676 702 666Q702 657 698 652Q688 648 680 648Q633 648 627 612Q624 601 624 294V-8Q616 -20 607 -20Q601 -20 596 -15Q593 -13 371 270L156 548L153 319Q153 284 153 234T152 167Q152 103 156 78T172 44T213 34Q236 34 242 28Q253 17 242 3L236 -1H36Q24 6 24 16Q24 34 56 34Q58 35 69 36T86 40T100 50T109 72Q111 83 111 345V603L96 619Q72 643 44 648Q20 648 20 664ZM413 419L240 648H120L136 628Q137 626 361 341T587 54L589 68Q589 78 589 121V192L413 419Z"></path>
</defs>
<g stroke="currentColor" fill="currentColor" stroke-width="0" transform="matrix(1 0 0 -1 0 0)">
 <use xlink:href="#E1-MJMAIN-27E8" x="0" y="0"></use>
 <use xlink:href="#E1-MJMATHI-73" x="394" y="0"></use>
 <use xlink:href="#E1-MJMAIN-3D" x="1145" y="0"></use>
<g transform="translate(2206,0)">
 <use xlink:href="#E1-MJMATHI-75" x="0" y="0"></use>
 <use transform="scale(0.707)" xlink:href="#E1-MJMAIN-30" x="816" y="-213"></use>
</g>
 <use xlink:href="#E1-MJMAIN-2C" x="3240" y="0"></use>
<g transform="translate(3690,0)">
 <use xlink:href="#E1-MJMATHI-75" x="0" y="0"></use>
 <use transform="scale(0.707)" xlink:href="#E1-MJMAIN-31" x="816" y="-213"></use>
</g>
 <use xlink:href="#E1-MJMAIN-2C" x="4724" y="0"></use>
 <use xlink:href="#E1-MJMAIN-2026" x="5174" y="0"></use>
 <use xlink:href="#E1-MJMAIN-2C" x="6517" y="0"></use>
<g transform="translate(6967,0)">
 <use xlink:href="#E1-MJMATHI-75" x="0" y="0"></use>
 <use transform="scale(0.707)" xlink:href="#E1-MJMATHI-70" x="816" y="-213"></use>
</g>
 <use xlink:href="#E1-MJMAIN-3D" x="8281" y="0"></use>
 <use xlink:href="#E1-MJMATHI-76" x="9342" y="0"></use>
 <use xlink:href="#E1-MJMAIN-2C" x="9832" y="0"></use>
 <use xlink:href="#E1-MJMAIN-2026" x="10281" y="0"></use>
 <use xlink:href="#E1-MJMAIN-2C" x="11625" y="0"></use>
<g transform="translate(12075,0)">
 <use xlink:href="#E1-MJMATHI-76" x="0" y="0"></use>
 <use transform="scale(0.707)" xlink:href="#E1-MJMATHI-71" x="692" y="-213"></use>
</g>
 <use xlink:href="#E1-MJMAIN-3D" x="13271" y="0"></use>
 <use xlink:href="#E1-MJMATHI-74" x="14332" y="0"></use>
 <use xlink:href="#E1-MJMAIN-27E9" x="14698" y="0"></use>
 <use xlink:href="#E1-MJMAIN-2C" x="15092" y="0"></use>
 <use xlink:href="#E1-MJMATHI-70" x="16542" y="0"></use>
 <use xlink:href="#E1-MJMAIN-2C" x="17050" y="0"></use>
 <use xlink:href="#E1-MJMATHI-71" x="17499" y="0"></use>
 <use xlink:href="#E1-MJMAIN-2208" x="18242" y="0"></use>
 <use xlink:href="#E1-MJAMS-4E" x="19192" y="0"></use>
</g>
</svg>